<?xml version="1.0" encoding="UTF-8"?>
<svg xmlns="http://www.w3.org/2000/svg" xmlns:xlink="http://www.w3.org/1999/xlink" width="962pt" height="751pt" viewBox="0 0 962 751" version="1.1">
<g id="surface1">
<path style=" stroke:none;fill-rule:nonzero;fill:rgb(100%,100%,100%);fill-opacity:1;" d="M 565.550781 562.050781 C 574.210938 561.800781 583.859375 560.429688 591.410156 565.710938 C 599.878906 571.429688 602.519531 582.339844 602.429688 592 C 602.53125 603.628906 599.808594 616.769531 589.980469 624.148438 C 582.839844 629.691406 573.421875 629.691406 564.820313 629.589844 C 564.960938 607.078125 565.191406 584.558594 565.550781 562.050781 M 710.828125 563.070313 C 720.320313 561.800781 730.640625 561.929688 739.171875 566.800781 C 745.429688 570.289063 749.511719 577 750.25 584.078125 C 751.421875 594.628906 749.019531 606.519531 740.660156 613.730469 C 732.570313 620.878906 721.128906 622.148438 710.769531 621.480469 C 710.910156 602.011719 710.789063 582.539063 710.828125 563.070313 M 710.839844 638 C 721.230469 637.921875 732.421875 637.679688 741.601563 643.351563 C 749.261719 647.820313 753.660156 656.429688 754.398438 665.089844 C 755.300781 675.25 754.039063 686.320313 747.710938 694.667969 C 743.089844 700.871094 735.71875 704.53125 728.160156 705.519531 C 722.390625 706.449219 716.589844 705.46875 710.839844 705.070313 C 710.828125 682.71875 710.828125 660.359375 710.839844 638 "/>
<path style=" stroke:none;fill-rule:nonzero;fill:rgb(7.835388%,62.304688%,85.546875%);fill-opacity:1;" d="M 211.949219 41.820313 C 234.359375 39.960938 257.398438 40.589844 278.988281 47.449219 C 305.589844 55.871094 329.320313 71.558594 350.101563 89.921875 C 365.058594 103.261719 378.699219 118.089844 390.769531 134.109375 C 403.539063 150.71875 414.28125 169.398438 418.78125 190.039063 C 415.871094 186.808594 412.871094 183.640625 410.28125 180.160156 C 407.179688 174.960938 402.820313 170.710938 398.96875 166.089844 C 380.808594 145.519531 361.320313 125.671875 337.980469 110.960938 C 332.050781 107.128906 325.96875 103.53125 319.789063 100.128906 C 312.160156 95.738281 303.398438 94.101563 294.988281 91.851563 C 269.359375 85.839844 242.078125 82.140625 216.289063 89.308594 C 186.78125 97.128906 159.46875 111.929688 135.101563 130.128906 C 130.070313 133.691406 126 138.351563 122.070313 143.050781 C 100.050781 169.378906 83.417969 201.328125 79.761719 235.820313 C 76.089844 271.46875 80.589844 308.441406 95.898438 341.078125 C 109.339844 369.640625 129.21875 395.460938 154.421875 414.609375 C 167.308594 424.351563 181.839844 431.941406 197.289063 436.679688 C 229.671875 446.820313 264.25 449.78125 297.910156 445.441406 C 317.148438 442.929688 336.410156 439.320313 354.699219 432.710938 C 383.730469 421.421875 410.839844 405.429688 435.550781 386.519531 C 458.039063 368.859375 479.03125 349.398438 499.609375 329.570313 C 504.558594 324.839844 508.691406 319.339844 513.191406 314.199219 C 536.460938 287.210938 560.25 260.601563 585.910156 235.859375 C 606.398438 216.019531 629.449219 198.441406 655.449219 186.46875 C 660.640625 183.949219 666.28125 182.480469 671.410156 179.800781 C 678.128906 177.949219 685.230469 176.328125 692.210938 177.121094 C 681.628906 180.820313 671.28125 185.488281 662.261719 192.21875 C 650.21875 201.398438 638.960938 211.558594 627.941406 221.929688 C 617.730469 231.730469 607.53125 241.570313 597.949219 251.988281 C 579.910156 277.351563 560.949219 302.070313 541.109375 326.058594 C 519.300781 352.429688 496.308594 377.960938 470.5 400.5 C 444.378906 423.320313 416.238281 444.019531 385.730469 460.609375 C 370.929688 467.851563 355.410156 473.53125 339.78125 478.691406 C 314.648438 486.699219 288.53125 492.871094 262 492.261719 C 237.671875 491.691406 213.570313 486.621094 190.679688 478.488281 C 180.78125 474.839844 170.789063 471.070313 162 465.128906 C 137.21875 449.230469 113.828125 430.078125 97.28125 405.449219 C 85.167969 387.558594 76.089844 367.648438 70.238281 346.859375 C 69.390625 344.160156 69.199219 341.210938 67.761719 338.738281 C 64.21875 349.730469 60.03125 360.738281 53.167969 370.140625 C 46.269531 379.578125 35.121094 385.261719 23.679688 386.839844 C 10.808594 342.230469 9.820313 293.96875 21.960938 249.089844 C 31.832031 214.058594 49.167969 181.238281 71.789063 152.800781 C 84.679688 136.820313 99.460938 122.449219 115.230469 109.328125 C 107.398438 112.808594 98.082031 114.78125 89.949219 111.109375 C 80.378906 106.839844 72.148438 99.960938 65 92.378906 C 109.289063 64.738281 159.859375 46.628906 211.949219 41.820313 "/>
<path style=" stroke:none;fill-rule:nonzero;fill:rgb(18.041992%,19.213867%,57.226563%);fill-opacity:1;" d="M 652.160156 59.269531 C 672.230469 54.738281 693 53.050781 713.5 55.238281 C 740.308594 58.058594 766.71875 65.378906 791.03125 77.058594 C 819.671875 94.171875 846.671875 115.671875 864.941406 143.960938 C 877.691406 163.660156 887.019531 185.578125 892.308594 208.449219 C 896.699219 195.550781 901.398438 182.078125 910.980469 172.03125 C 917.761719 165.140625 927.039063 161.300781 936.441406 159.671875 C 941.511719 175.011719 943.988281 191.101563 945.671875 207.140625 C 949.351563 245.539063 944.828125 284.96875 930.558594 320.929688 C 918.039063 352.738281 899.898438 382.460938 876.621094 407.550781 C 867.058594 418.101563 856.390625 427.558594 845.71875 436.949219 C 853.261719 433.828125 861.988281 431.929688 869.808594 435.238281 C 879.671875 439.378906 887.921875 446.550781 895.359375 454.101563 C 869.230469 470.769531 840.621094 483.421875 811.019531 492.519531 C 785.699219 500.070313 759.480469 504.921875 733.03125 505.609375 C 713.898438 506.050781 694.488281 504.058594 676.421875 497.488281 C 647.769531 487.269531 622.648438 469 600.910156 448.011719 C 587.191406 434.679688 574.699219 420.070313 563.710938 404.410156 C 553.480469 390.230469 545.851563 374.199219 541.519531 357.261719 C 541.761719 357.28125 542.25 357.320313 542.488281 357.351563 C 543.949219 359.019531 545.539063 360.601563 546.78125 362.46875 C 548.191406 364.898438 549.808594 367.21875 551.699219 369.308594 C 572.53125 393.710938 594.480469 417.859375 621.730469 435.230469 C 629.988281 440.441406 638.28125 445.789063 647.289063 449.628906 C 663.328125 454.898438 679.960938 458.378906 696.738281 460.289063 C 709.78125 461.589844 723.078125 461.808594 735.96875 459.160156 C 756.101563 455.011719 775.28125 447.089844 793.238281 437.191406 C 806.019531 430.03125 818.488281 422.128906 829.78125 412.769531 C 839.558594 403.039063 847.859375 391.878906 855.261719 380.269531 C 866.460938 362.441406 875.058594 342.769531 878.921875 322 C 882.519531 301.898438 882.511719 281.25 880.160156 261 C 876.46875 229.191406 864.039063 198.628906 845.238281 172.769531 C 826.53125 146.769531 801.648438 124.148438 771.328125 112.761719 C 735.398438 99.761719 696.230469 96.269531 658.449219 101.648438 C 637.089844 104.761719 615.601563 108.980469 595.808594 117.878906 C 565.769531 130.988281 537.78125 148.691406 512.710938 169.78125 C 493.601563 185.898438 475.089844 202.761719 457.390625 220.421875 C 431.191406 251.089844 404.558594 281.488281 375.589844 309.601563 C 354.101563 330.480469 329.921875 349.160156 302.328125 361.21875 C 295.25 364.46875 287.671875 366.289063 280.339844 368.808594 C 275.929688 369.941406 271.300781 369.800781 266.789063 369.730469 C 280.058594 365.710938 292.648438 359.25 303.289063 350.300781 C 324.179688 333.300781 343.539063 314.46875 362.078125 294.949219 C 389.589844 256.628906 418.671875 219.328125 450.550781 184.519531 C 478.949219 153.660156 511.050781 126.191406 546.058594 103.089844 C 559.269531 94.609375 572.609375 86.058594 587.238281 80.230469 C 608.25 71.480469 629.921875 64.199219 652.160156 59.269531 "/>
<path style=" stroke:none;fill-rule:nonzero;fill:rgb(39.598083%,78.514099%,90.625%);fill-opacity:1;" d="M 216.289063 89.308594 C 242.078125 82.140625 269.359375 85.839844 294.988281 91.851563 C 303.398438 94.101563 312.160156 95.738281 319.789063 100.128906 C 325.96875 103.53125 332.050781 107.128906 337.980469 110.960938 C 361.320313 125.671875 380.808594 145.519531 398.96875 166.089844 C 402.820313 170.710938 407.179688 174.960938 410.28125 180.160156 C 409.199219 179.460938 408.140625 178.71875 407.261719 177.789063 C 397.761719 167.628906 387.789063 157.890625 377.441406 148.589844 C 366.570313 138.941406 355.261719 129.660156 342.609375 122.410156 C 325.621094 112.628906 306.539063 106.191406 286.941406 104.75 C 264.929688 103.800781 242.609375 104.449219 221.121094 109.738281 C 207.5 113.03125 194.96875 119.699219 183.351563 127.378906 C 168.621094 137.289063 155.308594 149.269531 143.671875 162.671875 C 138.339844 168.628906 134.488281 175.710938 130.578125 182.628906 C 118.578125 204.878906 109.648438 229.460938 109.070313 254.960938 C 108.769531 276.308594 112.488281 297.570313 118.480469 318.011719 C 122.46875 331.121094 127.160156 344.390625 135.761719 355.269531 C 151.769531 376.011719 172.101563 393.769531 195.71875 405.300781 C 214.800781 414.601563 236.089844 418.199219 257.101563 419.601563 C 276.03125 420.761719 295.101563 420.449219 313.941406 418.179688 C 333.039063 413.621094 351.519531 406.609375 369.398438 398.53125 C 400.058594 384.691406 427.390625 364.628906 453.089844 343.148438 C 465.679688 332.441406 478.179688 321.558594 489.671875 309.648438 C 516.019531 283.269531 543.171875 257.609375 572.160156 234.121094 C 595.871094 214.78125 622.121094 198.398438 650.351563 186.5 C 657.230469 183.910156 664.070313 180.789063 671.410156 179.800781 C 666.28125 182.480469 660.640625 183.949219 655.449219 186.46875 C 629.449219 198.441406 606.398438 216.019531 585.910156 235.859375 C 560.25 260.601563 536.460938 287.210938 513.191406 314.199219 C 508.691406 319.339844 504.558594 324.839844 499.609375 329.570313 C 479.03125 349.398438 458.039063 368.859375 435.550781 386.519531 C 410.839844 405.429688 383.730469 421.421875 354.699219 432.710938 C 336.410156 439.320313 317.148438 442.929688 297.910156 445.441406 C 264.25 449.78125 229.671875 446.820313 197.289063 436.679688 C 181.839844 431.941406 167.308594 424.351563 154.421875 414.609375 C 129.21875 395.460938 109.339844 369.640625 95.898438 341.078125 C 80.589844 308.441406 76.089844 271.46875 79.761719 235.820313 C 83.417969 201.328125 100.050781 169.378906 122.070313 143.050781 C 126 138.351563 130.070313 133.691406 135.101563 130.128906 C 159.46875 111.929688 186.78125 97.128906 216.289063 89.308594 "/>
<path style=" stroke:none;fill-rule:nonzero;fill:rgb(0%,44.700623%,73.242188%);fill-opacity:1;" d="M 658.449219 101.648438 C 696.230469 96.269531 735.398438 99.761719 771.328125 112.761719 C 801.648438 124.148438 826.53125 146.769531 845.238281 172.769531 C 864.039063 198.628906 876.46875 229.191406 880.160156 261 C 882.511719 281.25 882.519531 301.898438 878.921875 322 C 875.058594 342.769531 866.460938 362.441406 855.261719 380.269531 C 847.859375 391.878906 839.558594 403.039063 829.78125 412.769531 C 818.488281 422.128906 806.019531 430.03125 793.238281 437.191406 C 775.28125 447.089844 756.101563 455.011719 735.96875 459.160156 C 723.078125 461.808594 709.78125 461.589844 696.738281 460.289063 C 679.960938 458.378906 663.328125 454.898438 647.289063 449.628906 C 638.28125 445.789063 629.988281 440.441406 621.730469 435.230469 C 594.480469 417.859375 572.53125 393.710938 551.699219 369.308594 C 549.808594 367.21875 548.191406 364.898438 546.78125 362.46875 C 557.351563 373.121094 567.570313 384.171875 578.738281 394.230469 C 592.328125 406.589844 606.539063 418.609375 622.960938 427.050781 C 639.359375 435.558594 657.480469 441.121094 675.988281 441.980469 C 700.800781 442.679688 726.289063 441.890625 749.921875 433.539063 C 771.261719 425.148438 789.960938 411.109375 806.210938 395.121094 C 812.621094 388.558594 819.179688 381.960938 823.898438 374.019531 C 834.558594 356.71875 843.011719 337.921875 847.78125 318.128906 C 852.988281 297.480469 851.769531 275.839844 848.128906 255.050781 C 845.320313 239.601563 841.21875 224.328125 835.238281 209.800781 C 829.21875 195 818.359375 182.890625 807.199219 171.730469 C 793.421875 158.300781 777.550781 146.789063 759.851563 139.109375 C 745.359375 132.789063 729.710938 129.640625 714.070313 127.898438 C 693.78125 125.761719 673.289063 125.929688 652.96875 127.648438 C 643.230469 128.191406 634.039063 131.800781 624.800781 134.628906 C 603.46875 141.808594 582.761719 150.980469 563.410156 162.511719 C 534.890625 179.769531 509.039063 201.058594 484.449219 223.480469 C 472.210938 234.921875 460.75 247.160156 448.558594 258.660156 C 431.691406 274.839844 414.449219 290.648438 396.511719 305.640625 C 382.398438 317.351563 367.878906 328.699219 352.148438 338.179688 C 333.371094 349.660156 313.648438 360.050781 292.441406 366.238281 C 288.460938 367.328125 284.460938 368.429688 280.339844 368.808594 C 287.671875 366.289063 295.25 364.46875 302.328125 361.21875 C 329.921875 349.160156 354.101563 330.480469 375.589844 309.601563 C 404.558594 281.488281 431.191406 251.089844 457.390625 220.421875 C 475.089844 202.761719 493.601563 185.898438 512.710938 169.78125 C 537.78125 148.691406 565.769531 130.988281 595.808594 117.878906 C 615.601563 108.980469 637.089844 104.761719 658.449219 101.648438 "/>
<path style=" stroke:none;fill-rule:nonzero;fill:rgb(10.205078%,13.330078%,31.762695%);fill-opacity:1;" d="M 381.078125 560.21875 C 397.800781 548.160156 418.570313 542.820313 438.980469 542.359375 C 458.75 541.910156 478.941406 544.648438 497.078125 552.820313 C 494.21875 562.351563 492.011719 572.078125 490.449219 581.921875 C 489.769531 582.058594 488.421875 582.339844 487.738281 582.480469 C 483.210938 576.621094 478.421875 570.800781 472.121094 566.75 C 459.941406 558.378906 444.109375 557.058594 430 560.371094 C 416.839844 563.351563 405.488281 572.109375 398.210938 583.339844 C 387.769531 599.070313 384.808594 618.5 385.121094 637.050781 C 385.410156 654.339844 389.199219 672.261719 399.660156 686.390625 C 407.609375 697.441406 419.648438 705.550781 433.058594 708.191406 C 447.890625 711.140625 463.980469 709.75 477.378906 702.410156 C 483.398438 699.230469 488.710938 694.890625 493.691406 690.300781 C 494.800781 690.960938 495.921875 691.621094 497.039063 692.289063 C 494.691406 699.039063 492.710938 705.929688 491.46875 712.988281 C 491.160156 713.988281 491.230469 715.460938 489.96875 715.808594 C 474.691406 722.761719 457.839844 726.351563 441.050781 726.011719 C 419.75 725.851563 397.910156 721.121094 380.011719 709.160156 C 364.921875 699.21875 352.789063 684.410156 347.441406 667.019531 C 341.910156 649.308594 342.28125 630.128906 346.269531 612.140625 C 350.960938 591.308594 363.640625 572.511719 381.078125 560.21875 M 525.371094 545.300781 C 548.238281 546.480469 571.121094 545.390625 594 545.328125 C 607.789063 545.328125 622.320313 549.601563 631.839844 560.050781 C 642.101563 570.859375 645.050781 586.589844 644 601.011719 C 643.269531 612.011719 638.558594 622.839844 630.28125 630.238281 C 619.148438 640.511719 603.800781 644.640625 589.019531 645.648438 C 581.019531 646.230469 573.011719 645.738281 565 645.738281 C 565.058594 671.5 564.75 697.339844 567.140625 723.03125 C 553.230469 722.160156 539.269531 722.160156 525.371094 723.03125 C 527.601563 699.410156 527.359375 675.648438 527.660156 651.960938 C 527.648438 626.640625 527.628906 601.328125 527.089844 576.019531 C 526.800781 565.769531 526.441406 555.511719 525.371094 545.300781 M 565.550781 562.050781 C 565.191406 584.558594 564.960938 607.078125 564.820313 629.589844 C 573.421875 629.691406 582.839844 629.691406 589.980469 624.148438 C 599.808594 616.769531 602.53125 603.628906 602.429688 592 C 602.519531 582.339844 599.878906 571.429688 591.410156 565.710938 C 583.859375 560.429688 574.210938 561.800781 565.550781 562.050781 M 671.328125 545.289063 C 693.558594 546.53125 715.808594 545.300781 738.050781 545.351563 C 753.449219 545.679688 769.851563 549.761719 780.890625 561.128906 C 793.199219 573.699219 792.160156 595.191406 781.679688 608.550781 C 774.351563 617.878906 763.359375 623.730469 751.929688 626.371094 C 765.289063 629.351563 778.421875 636.261719 786.238281 647.808594 C 794.199219 659.488281 795.070313 674.839844 791.289063 688.160156 C 786.980469 703.140625 774.128906 714.539063 759.589844 719.351563 C 744.929688 724.539063 729.191406 722.710938 713.960938 722.71875 C 699.75 722.351563 685.53125 722.359375 671.320313 723.03125 C 673.269531 703.417969 673.191406 683.679688 673.460938 663.988281 C 673.691406 635.980469 673.628906 607.96875 673.140625 579.960938 C 672.859375 568.390625 672.511719 556.808594 671.328125 545.289063 M 710.828125 563.070313 C 710.789063 582.539063 710.910156 602.011719 710.769531 621.480469 C 721.128906 622.148438 732.570313 620.878906 740.660156 613.730469 C 749.019531 606.519531 751.421875 594.628906 750.25 584.078125 C 749.511719 577 745.429688 570.289063 739.171875 566.800781 C 730.640625 561.929688 720.320313 561.800781 710.828125 563.070313 M 710.839844 638 C 710.828125 660.359375 710.828125 682.71875 710.839844 705.070313 C 716.589844 705.46875 722.390625 706.449219 728.160156 705.519531 C 735.71875 704.53125 743.089844 700.871094 747.710938 694.667969 C 754.039063 686.320313 755.300781 675.25 754.398438 665.089844 C 753.660156 656.429688 749.261719 647.820313 741.601563 643.351563 C 732.421875 637.679688 721.230469 637.921875 710.839844 638 M 155.488281 545.300781 C 169.398438 546.179688 183.359375 546.171875 197.269531 545.300781 C 194.28125 571.429688 194.929688 597.78125 194.5 624.03125 C 194.800781 641.320313 193.109375 659.039063 198.160156 675.851563 C 201.050781 685.898438 207.058594 695.5 216.398438 700.667969 C 227.710938 706.941406 241.378906 707.710938 253.910156 705.511719 C 267.058594 703.199219 278.261719 693.761719 283.621094 681.648438 C 292.511719 662.710938 290.691406 641.300781 290.820313 620.988281 C 290.359375 595.769531 291.460938 570.480469 289.21875 545.320313 C 297.910156 546.148438 306.691406 546.171875 315.378906 545.320313 C 312.019531 570.730469 312.78125 596.429688 312.261719 622 C 312.289063 642.578125 313.191406 663.871094 305.648438 683.441406 C 300.351563 698.039063 289.710938 710.820313 275.609375 717.601563 C 262.160156 724.269531 246.878906 726.21875 232.019531 726.011719 C 214.578125 725.839844 196.230469 722.589844 182 711.859375 C 170.128906 703.082031 162.878906 689.300781 159.820313 675.070313 C 156.378906 660.28125 157.398438 645.019531 157.25 629.96875 C 156.679688 601.75 158.058594 573.449219 155.488281 545.300781 "/>
</g>
</svg>
